<svg viewBox="0 0 200 200" xmlns="http://www.w3.org/2000/svg">
  <!-- Background circle -->
  <circle cx="100" cy="100" r="95" fill="#0a1628" stroke="#3b82f6" stroke-width="2"/>
  
  <!-- Water droplets (representing cleaning/water services) -->
  <g fill="#60a5fa">
    <!-- Main droplet -->
    <path d="M 100 40 C 110 55 120 70 120 85 C 120 100  112 110 100 110 C 88 110 80 100 80 85 C 80 70 90 55 100 40 Z" />
    
    <!-- Secondary droplets -->
    <path d="M 70 95 C 74 103 78 110 78 118 C 78 127 73 133 67 133 C 61 133 57 127 57 118 C 57 110 61 103 65 95 Z" opacity="0.7" />
    <path d="M 130 95 C 134 103 138 110 138 118 C 138 127 133 133 127 133 C 121 133 117 127 117 118 C 117 110 121 103 125 95 Z" opacity="0.7" />
  </g>
  
  <!-- Sparkle elements (cleanliness) -->
  <circle cx="60" cy="60" r="3" fill="#38bdf8" opacity="0.8"/>
  <circle cx="140" cy="60" r="3" fill="#38bdf8" opacity="0.8"/>
  <circle cx="100" cy="50" r="2" fill="#38bdf8" opacity="0.6"/>
</svg>
